<svg xmlns="http://www.w3.org/2000/svg" width="400" height="400" viewBox="0 0 400 400" fill="none">
  <rect width="400" height="400" fill="#f3f4f6"/>
  <rect x="0.5" y="0.5" width="399" height="399" stroke="#e5e7eb" stroke-width="1" stroke-dasharray="4 4"/>
  <path d="M160 180C160 157.909 177.909 140 200 140C222.091 140 240 157.909 240 180C240 202.091 222.091 220 200 220C177.909 220 160 202.091 160 180Z" fill="#d1d5db"/>
  <path d="M128 280C128 248.177 153.621 228 200 228C246.379 228 272 248.177 272 280V288C272 292.418 268.418 296 264 296H136C131.582 296 128 292.418 128 288V280Z" fill="#d1d5db"/>
</svg>
